# xmcd
# Copyright (C) 1995-1998 Ti Kan
#
# Track frame offsets:
#       150
#       33876
#       48409
#       58619
#       73942
#       91787
#       109010
#       123386
#       142667
#       162995
#       181060
#
# Disc length: 2645 seconds
#
# Revision: 0
# Processed by: cddbd v1.5.2PL0 Copyright (c) Steve Scherf et al.
# Submitted via: CD-Transfer v1.0
#
DISCID=8a0a530b
DTITLE=Various Only - Only For Radio 3
DYEAR=07
DGENRE=
TTITLE0=Justin Timberland What Goes Round
TTITLE1=Christina Aguilera Candyman
TTITLE2=Tony Bennett Wirth Michael Bublé - Just In Time
TTITLE3=America - Always Love
TTITLE4=Incubus Love Hurts
TTITLE5=John Mayer Gravity
TTITLE6=Imogen Heap Headlock
TTITLE7=Joy Delanane Heaven Or Hell
TTITLE8=International Pony Gothic Girl
TTITLE9=The Fray How To Save A Life
TTITLE10=Gianni Morandi Tu Sei Nel Mio Presente
EXTD=
EXTT0=
EXTT1=
EXTT2=
EXTT3=
EXTT4=
EXTT5=
EXTT6=
EXTT7=
EXTT8=
EXTT9=
EXTT10=
PLAYORDER=
